<?xml version="1.0" encoding="UTF-8"?>
<svg width="146px" height="185px" viewBox="0 0 146 185" version="1.1" xmlns="http://www.w3.org/2000/svg" xmlns:xlink="http://www.w3.org/1999/xlink">
    <title>member</title>
    <g id="member" stroke="none" stroke-width="1" fill="none" fill-rule="evenodd">
        <path d="M72.5,7 C93.2106781,7 110,37.6684946 110,75.5 C110,96.9488187 104.603245,116.095161 96.1548244,128.655334 C98.5150637,128.22613 100.973875,128 103.5,128 C121.449254,128 136,139.416739 136,153.5 C136,167.583261 121.449254,179 103.5,179 C89.2589953,179 77.1573159,171.813284 72.7648264,161.810052 C68.0260007,171.288708 56.2619014,178 42.5,178 C24.5507456,178 10,166.583261 10,152.5 C10,138.416739 24.5507456,127 42.5,127 C44.3759415,127 46.2147608,127.124706 48.0037263,127.364129 C40.0398236,114.804594 35,96.2273945 35,75.5 C35,37.6684946 51.7893219,7 72.5,7 Z M103.5,139 C100.099201,139 96.9442822,139.540133 94.1568166,140.475887 L93.4949422,140.707989 C86.5115311,143.263197 82,148.335375 82,153.5 C82,158.664625 86.5115311,163.736803 93.4949422,166.292011 L94.1568166,166.524113 C96.9442822,167.459867 100.099201,168 103.5,168 C106.900799,168 110.055718,167.459867 112.843183,166.524113 L113.505058,166.292011 C120.488469,163.736803 125,158.664625 125,153.5 C125,148.335375 120.488469,143.263197 113.505058,140.707989 L112.843183,140.475887 C110.055718,139.540133 106.900799,139 103.5,139 Z M42.5,138 C39.0992008,138 35.9442822,138.540133 33.1568166,139.475887 L32.4949422,139.707989 C25.5115311,142.263197 21,147.335375 21,152.5 C21,157.664625 25.5115311,162.736803 32.4949422,165.292011 L33.1568166,165.524113 C35.9442822,166.459867 39.0992008,167 42.5,167 C45.9007992,167 49.0557178,166.459867 51.8431834,165.524113 L52.5050578,165.292011 C59.4884689,162.736803 64,157.664625 64,152.5 C64,147.335375 59.4884689,142.263197 52.5050578,139.707989 L51.8431834,139.475887 C49.0557178,138.540133 45.9007992,138 42.5,138 Z M98.0735682,60.9999477 L46.9264318,60.9999477 C46.3266427,65.6080645 46,70.4627693 46,75.5 C46,108.064063 59.6510606,133 72.5,133 C85.3489394,133 99,108.064063 99,75.5 C99,70.4627693 98.6733573,65.6080645 98.0735682,60.9999477 Z M48.9715598,49.999639 L96.0284402,49.999639 C92.2503353,34.6087406 85.3320936,23.343564 78.0002138,19.4691158 L78,35 L67,35 L67.0007875,19.4685867 C59.6685364,23.3425383 52.7498367,34.6080399 48.9715598,49.999639 Z" id="Combined-Shape" fill="#000000" fill-rule="nonzero"></path>
    </g>
</svg>